HIERARCHY
ROOT Hips
{
  OFFSET 0 0 0
  CHANNELS 6 Xposition Yposition Zposition Zrotation Yrotation Xrotation
  JOINT LeftThigh
  {
    OFFSET 8.409438 0 -5.917753
    CHANNELS 3 Zrotation Yrotation Xrotation
    JOINT LeftLeg
    {
      OFFSET 0 0 -42.358652
      CHANNELS 3 Zrotation Yrotation Xrotation
      JOINT LeftFoot
      {
        OFFSET 0 0 -39.357303
        CHANNELS 3 Zrotation Yrotation Xrotation
      }
    }
  }
  JOINT RightThigh
  {
    OFFSET -8.409438 0 -5.917753
    CHANNELS 3 Zrotation Yrotation Xrotation
    JOINT RightLeg
    {
      OFFSET 0 0 -42.358652
      CHANNELS 3 Zrotation Yrotation Xrotation
      JOINT RightFoot
      {
        OFFSET 0 0 -39.357303
        CHANNELS 3 Zrotation Yrotation Xrotation
      }
    }
  }
  JOINT SpineLow
  {
    OFFSET 0 0 4.719101
    CHANNELS 3 Zrotation Yrotation Xrotation
    JOINT SpineMid
    {
      OFFSET 0 0 12.899191
      CHANNELS 3 Zrotation Yrotation Xrotation
      JOINT Chest
      {
        OFFSET 0 0 12.899191
        CHANNELS 3 Zrotation Yrotation Xrotation
        JOINT LeftShoulder
        {
          OFFSET 7.550562 1.41573 9.438202
          CHANNELS 3 Zrotation Yrotation Xrotation
          JOINT LeftArm
          {
            OFFSET 9.155056 0 4.247191
            CHANNELS 3 Zrotation Yrotation Xrotation
            JOINT LeftForearm
            {
              OFFSET 0 0 25.771955
              CHANNELS 3 Zrotation Yrotation Xrotation
              JOINT LeftHand
              {
                OFFSET 0 0 25.197169
                CHANNELS 3 Zrotation Yrotation Xrotation
              }
            }
          }
        }
        JOINT RightShoulder
        {
          OFFSET -7.550562 1.41573 9.438202
          CHANNELS 3 Zrotation Yrotation Xrotation
          JOINT RightArm
          {
            OFFSET -9.155056 0 4.247191
            CHANNELS 3 Zrotation Yrotation Xrotation
            JOINT RightForearm
            {
              OFFSET 0 0 -25.771955
              CHANNELS 3 Zrotation Yrotation Xrotation
              JOINT RightHand
              {
                OFFSET 0 0 -25.197169
                CHANNELS 3 Zrotation Yrotation Xrotation
              }
            }
          }
        }
        JOINT Neck
        {
          OFFSET 0 0 15.101124
          CHANNELS 3 Zrotation Yrotation Xrotation
          JOINT Head
          {
            OFFSET 0 0 11.325843
            CHANNELS 3 Zrotation Yrotation Xrotation
            End Site
            {
              OFFSET 0 0 14.157303
            }
          }
        }
      }
    }
  }
}
MOTION
Frames: 16
Frame Time: 0.0
0.0  101.685394  0.0  1.931525  18.276087  -100.127454  37.862722  -29.606261  22.771313  -23.525572  2.604996  20.53576  -7.571489  0.806248  -6.454424  -13.103548  2.696825  -33.884064  3.518435  7.459835  51.052533  17.664884  3.394142  3.743466  -1.895855  0.823646  2.477495  -5.093649  2.441132  6.70542  -5.093649  2.441132  6.70542  -11.621555  27.281986  4.874305  160.321383  72.175862  -140.794528  -31.801345  -36.144862  78.572102  50.235884  -23.733179  6.818113  12.596238  -8.280245  21.603778  71.164073  43.684813  26.514874  -43.944611  28.456594  -103.995542  73.374108  10.755953  18.819797  0.346955  -1.789605  1.213299  0.26375  -1.341522  0.910917  
0.0  101.685394  0.0  1.978447  18.350445  -100.047218  38.157301  -29.731717  22.764851  -23.740798  2.617889  20.195664  -7.427913  0.862979  -6.311982  -13.017246  2.742153  -33.895915  3.443812  7.74201  50.950588  17.751305  3.382386  3.558366  -1.942004  0.828179  2.460795  -5.219911  2.456839  6.657651  -5.219911  2.456839  6.657652  -11.461264  27.365681  4.89452  160.618351  72.118746  -140.552501  -32.026461  -36.236568  78.967421  50.080756  -23.786865  6.79256  12.692261  -8.185776  21.549577  71.196537  43.486608  26.730881  -43.784524  28.183001  -104.021662  73.101807  10.862645  18.365072  0.486709  -1.717929  1.112625  0.368134  -1.287567  0.835775  
0.0  101.685394  0.0  1.897569  18.419885  -100.050052  38.333589  -29.893369  22.671264  -24.076743  2.580525  19.763607  -7.069956  1.066137  -5.995367  -12.957283  2.765219  -33.902662  3.298626  7.953586  50.894877  17.851241  3.360592  3.410816  -2.03801  0.824436  2.427762  -5.483807  2.453504  6.563911  -5.483807  2.453504  6.56391  -11.038621  27.462536  5.037056  160.73897  71.959854  -140.345355  -32.396421  -35.663262  80.123532  50.409122  -23.596668  6.244086  12.677727  -8.142358  21.479658  71.979669  43.05197  27.343883  -43.971017  27.941333  -103.83124  72.982895  11.250857  17.768538  0.678167  -1.626855  0.991784  0.511233  -1.219046  0.745595  
0.0  101.685394  0.0  1.941484  18.490097  -99.959509  38.468844  -29.904152  22.656047  -24.191874  2.57703  19.536536  -6.916403  1.108168  -5.830831  -12.728916  2.874226  -33.967846  3.113376  8.138479  50.839236  17.902704  3.354382  3.335271  -2.080728  0.82565  2.421535  -5.600622  2.460499  6.545122  -5.600622  2.460499  6.545123  -10.858871  27.592544  5.012148  160.730753  71.999156  -140.273643  -32.677719  -35.588469  80.490954  50.097835  -23.779246  6.230387  12.766472  -8.056023  21.425896  71.940177  42.89083  27.502331  -43.806187  27.62496  -103.81171  72.876879  11.553203  17.103503  0.779621  -1.547985  0.774628  0.586643  -1.160005  0.582912  
0.0  101.685394  0.0  1.851349  18.524107  -99.961252  38.499892  -29.943483  22.556478  -24.398212  2.541728  19.280989  -6.711537  1.162234  -5.615296  -12.479074  2.915952  -33.97982  2.867215  8.253608  50.755626  17.906027  3.396454  3.332417  -2.182443  0.821037  2.394811  -5.879957  2.455538  6.468482  -5.879957  2.455538  6.468483  -10.346566  27.735659  5.124367  160.278755  72.023301  -140.450777  -33.034892  -34.556612  81.8579  51.25852  -23.136298  5.303364  12.878674  -8.013764  21.412143  72.748505  42.433608  28.046385  -44.067017  27.452957  -103.537569  72.744605  12.223572  16.163528  0.708222  -1.398839  0.457088  0.532187  -1.048602  0.34442  
0.0  101.685394  0.0  1.882063  18.542159  -99.908363  38.510305  -29.849231  22.54659  -24.48171  2.520817  19.198955  -6.51381  1.189544  -5.450262  -12.167573  2.997719  -34.038474  2.754055  8.335276  50.716326  17.841315  3.391558  3.340083  -2.207034  0.824614  2.405785  -5.946361  2.468655  6.497194  -5.946361  2.468655  6.497194  -10.242607  27.876974  5.046811  160.007804  72.16101  -140.613001  -33.262793  -34.35898  82.074736  51.010884  -23.286689  5.297502  12.893731  -7.949658  21.317857  72.449787  42.280947  28.027356  -43.900951  27.135578  -103.613926  72.529823  12.736897  14.905533  0.714868  -1.393056  0.194969  0.536569  -1.044566  0.147849  
0.0  101.685394  0.0  1.776765  18.402122  -100.010418  38.126373  -29.559253  22.195004  -24.263788  2.547025  19.553734  -6.047891  1.351411  -5.129158  -11.701956  3.001382  -33.93418  2.702894  8.286035  50.767423  17.892845  3.321296  3.283154  -2.243552  0.821243  2.414823  -6.046072  2.463832  6.520731  -6.046072  2.463832  6.520731  -10.264313  27.954696  4.965484  159.412513  72.265492  -140.961023  -33.433501  -33.685714  82.886315  50.540089  -23.534712  5.244974  12.688942  -7.93536  21.134311  73.025647  41.779235  28.420935  -44.013637  26.899753  -103.538087  72.325674  13.443771  13.344774  0.720568  -1.416125  -0.01955  0.540353  -1.062118  -0.012992  
0.0  101.685394  0.0  1.782332  18.447182  -99.96632  37.963544  -29.347954  22.193243  -24.387322  2.468262  19.502226  -5.712176  1.411714  -4.928024  -11.431069  3.016571  -33.971126  2.619519  8.400046  50.81319  18.188706  3.128414  3.161603  -2.251668  0.823974  2.433462  -6.067246  2.473765  6.571094  -6.067246  2.473765  6.571094  -10.31426  28.102427  4.835403  158.848875  72.50791  -141.397055  -33.450649  -33.810061  82.730449  50.305751  -23.672647  5.348011  12.566797  -7.885309  21.014896  72.323635  41.654212  28.179868  -43.706405  26.518026  -103.734655  72.208609  13.908974  11.736163  0.560079  -1.504069  -0.256049  0.419405  -1.128288  -0.190647  
0.0  101.685394  0.0  1.682514  18.200734  -100.090117  37.855978  -29.218757  22.200826  -24.30469  2.369644  19.559833  -5.39054  1.50413  -4.720179  -10.955066  2.925557  -33.846913  2.565026  8.458097  50.884246  18.582138  2.899457  3.018561  -2.270692  0.820128  2.444854  -6.119124  2.466191  6.6018  -6.119124  2.466191  6.601799  -10.237865  28.215203  4.773448  158.347395  72.647563  -141.806581  -33.371051  -32.856729  83.772465  51.959434  -22.779721  4.356177  12.391388  -7.848444  20.84645  72.121777  41.256747  28.217134  -43.254172  26.176812  -103.912691  72.308191  14.400104  10.245466  0.48261  -1.576424  -0.406409  0.360887  -1.18264  -0.303542  
0.0  101.685394  0.0  1.668416  18.127541  -100.052393  37.701656  -29.007433  22.313116  -24.277133  2.207738  19.416394  -5.202616  1.549947  -4.545204  -10.623872  2.814214  -33.839306  2.474951  8.691986  50.890927  18.939813  2.706529  2.919921  -2.265567  0.820504  2.459473  -6.104509  2.468044  6.641909  -6.104509  2.468044  6.641909  -10.367843  28.348112  4.658022  157.892255  72.842011  -142.261425  -33.29963  -32.908318  83.571034  52.013426  -22.830018  4.470579  12.320686  -7.799048  20.673147  71.13608  40.995542  27.883646  -42.892128  25.903186  -104.144938  72.241966  14.849323  8.866221  0.278326  -1.705816  -0.56779  0.207144  -1.279622  -0.425034  
0.0  101.685394  0.0  1.449441  17.504022  -100.319806  37.795994  -29.012697  22.493783  -24.016108  2.032286  19.349234  -4.848546  1.649447  -4.289693  -10.311628  2.806415  -33.745012  2.91447  8.086929  51.228402  18.728406  2.548207  2.717459  -2.23735  0.803643  2.481588  -6.028194  2.421238  6.704902  -6.028194  2.421238  6.704902  -10.215921  28.471058  4.694698  157.452945  72.993903  -142.740391  -33.289685  -32.804567  83.352579  52.034472  -22.785467  4.566195  12.420246  -7.817188  20.512911  70.540171  40.471255  27.829124  -42.557116  25.781945  -104.279596  72.166639  15.446131  7.610831  0.011732  -1.755994  -0.738843  0.006675  -1.317012  -0.554055  
0.0  101.685394  0.0  1.417929  17.368799  -100.184621  37.693909  -28.739538  22.694  -23.959941  1.779515  18.98135  -4.588505  1.677436  -4.073305  -9.932753  2.641228  -33.803258  2.845821  8.232111  51.254336  18.546703  2.464645  2.635428  -2.241883  0.797313  2.470624  -6.041615  2.403437  6.675318  -6.041615  2.403437  6.675318  -10.337274  28.632823  4.620479  156.802758  73.176273  -143.422277  -33.345877  -32.405327  83.292923  51.911285  -22.65149  4.653284  12.395223  -7.725774  20.332388  69.623323  39.957496  27.550843  -42.370623  25.676419  -104.518743  72.056443  15.958433  6.396242  -0.185707  -1.897487  -0.825769  -0.141832  -1.422868  -0.619847  
0.0  101.685394  0.0  1.32368  17.068989  -100.13039  37.487512  -28.402003  22.868691  -23.605409  1.513474  18.760432  -4.283338  1.725276  -3.834072  -9.481298  2.496095  -33.814508  2.782135  8.242946  51.354072  18.320203  2.446396  2.574486  -2.253691  0.789115  2.454772  -6.075269  2.380815  6.632271  -6.075269  2.380814  6.632271  -10.438593  28.7619  4.588708  156.183664  73.326402  -144.142239  -33.484728  -31.939497  83.247825  51.633492  -22.427585  4.772115  12.2841  -7.669124  20.097101  69.368916  39.129954  27.581013  -42.376227  25.582225  -104.69779  72.055146  16.425835  5.141936  -0.376857  -2.001737  -0.889953  -0.285531  -1.500758  -0.668632  
0.0  101.685394  0.0  1.24954  16.959297  -99.919224  37.353764  -28.112046  23.089954  -23.426104  1.192179  18.260126  -4.10811  1.719831  -3.626335  -9.101157  2.253168  -33.906275  2.481288  8.600221  51.363921  18.201431  2.442681  2.537018  -2.267495  0.775961  2.427216  -6.11528  2.343785  6.557619  -6.115279  2.343785  6.557619  -10.693341  28.905576  4.516559  155.163915  73.503374  -145.124464  -33.666966  -31.459921  83.244352  51.25015  -22.148613  4.889565  12.126387  -7.533112  19.908519  68.509841  38.415866  27.181502  -42.158455  25.397696  -104.954168  72.074087  16.768291  3.745068  -0.621426  -2.156505  -0.918169  -0.469257  -1.616452  -0.69074  
0.0  101.685394  0.0  1.104268  16.699577  -99.731911  37.168767  -27.776723  23.248689  -23.108597  0.846727  17.804993  -3.85438  1.737261  -3.384563  -8.88526  1.965571  -34.068776  2.301441  8.911279  51.505508  18.87926  2.301302  2.637606  -2.280549  0.758881  2.388324  -6.154  2.294896  6.452392  -6.154  2.294895  6.452392  -10.98284  28.997959  4.448893  154.214948  73.63679  -146.09466  -33.844526  -31.075469  83.233989  50.827912  -21.872251  4.950011  11.891939  -7.496392  19.693492  68.950809  37.279328  27.421824  -42.670662  25.154439  -105.006539  72.128021  17.056665  2.204591  -0.826144  -2.317285  -0.900817  -0.622942  -1.736755  -0.678656  
0.0  101.685394  0.0  1.008952  16.559192  -99.392652  37.031664  -27.393026  23.429678  -22.822813  0.45126  17.222144  -3.649276  1.727564  -3.141769  -8.665399  1.597219  -34.315915  1.776402  9.559374  51.572512  18.884309  2.282461  2.652189  -2.30567  0.744019  2.331383  -6.226079  2.251475  6.297251  -6.226078  2.251475  6.29725  -11.326092  29.114824  4.378179  152.98481  73.792491  -147.184072  -34.026657  -30.858703  83.202992  50.481616  -21.656258  4.94934  11.576591  -7.413509  19.507041  68.202582  36.50369  27.007401  -42.341823  24.80617  -105.290192  72.221317  17.282577  0.578106  -1.083864  -2.491365  -0.912048  -0.816492  -1.866918  -0.688352  
